<?xml version="1.0" encoding="utf-8"?>
<!-- Generator: Adobe Illustrator 25.0.1, SVG Export Plug-In . SVG Version: 6.00 Build 0)  -->
<svg version="1.1" id="Layer_1" xmlns="http://www.w3.org/2000/svg" xmlns:xlink="http://www.w3.org/1999/xlink" x="0px" y="0px"
	 width="780px" height="440px" viewBox="0 0 780 440" style="enable-background:new 0 0 780 440;" xml:space="preserve">
<style type="text/css">
	.st0{fill:#A193F2;}
	.st1{fill:#483A9C;stroke:#000000;stroke-width:1.25;stroke-miterlimit:10;}
	.st2{fill:#FFE16E;stroke:#002138;stroke-width:1.25;stroke-linecap:round;stroke-linejoin:round;stroke-miterlimit:10;}
	.st3{fill:none;stroke:#002138;stroke-width:1.25;stroke-linecap:round;stroke-linejoin:round;stroke-miterlimit:10;}
	.st4{fill:#FFFFFF;stroke:#231F20;stroke-width:1.25;stroke-miterlimit:10;}
	.st5{fill:none;stroke:#000000;stroke-width:1.25;stroke-linecap:round;stroke-linejoin:round;stroke-miterlimit:10;}
</style>
<g>
	<rect x="-4.4" y="-7" class="st0" width="789.1" height="455.9"/>
	<g>
		<g>
			<circle class="st1" cx="440.4" cy="273" r="17.9"/>
			<polygon class="st2" points="437.7,272.2 437.7,265.4 443.6,265.4 443.6,272.2 448.2,272.2 444.4,277.9 440.7,283.5 436.9,277.9 
				433.1,272.2 			"/>
		</g>
	</g>
	<path class="st3" d="M415.8,84.9c18.6,3.7,35.6,11,50.4,21.1s27.4,22.8,37.1,37.5"/>
	<path class="st3" d="M254,247.6c-3.6-17.5-3.8-36-0.1-54.7"/>
	<path class="st3" d="M502.7,297.2c-10.1,14.8-22.8,27.4-37.5,37.1s-31.2,16.8-48.7,20.4c-17.5,3.6-36,3.8-54.7,0.1
		s-35.6-11-50.4-21.1"/>
	<path class="st3" d="M486.5,267.1c-6.5,12.5-15.3,23.8-26.2,33.1c-10.9,9.3-23.7,16.7-38.2,21.3c-14.5,4.6-29.2,6.1-43.5,4.8
		c-14.2-1.3-28-5.4-40.5-11.8c-12.5-6.5-23.8-15.3-33.1-26.2c-9.3-10.9-16.7-23.7-21.3-38.2"/>
	<path class="st3" d="M355.1,111.7c14.5-4.6,29.2-6.1,43.5-4.8c14.2,1.3,28,5.4,40.5,11.8c12.5,6.5,23.8,15.3,33.1,26.2"/>
	<path class="st3" d="M398.8,299.6c-10.7,1.2-21.4,0.3-31.6-2.5c-10.2-2.8-19.8-7.6-28.3-14.2c-8.5-6.6-15.8-14.9-21.4-24.8
		c-5.6-9.9-8.9-20.5-10.1-31.2c-1.2-10.7-0.3-21.4,2.5-31.6c2.8-10.2,7.6-19.8,14.2-28.3s14.9-15.8,24.8-21.4
		c9.9-5.6,20.5-8.9,31.2-10.1c10.7-1.2,21.4-0.3,31.6,2.5c10.2,2.8,19.8,7.6,28.3,14.2c8.5,6.6,15.8,14.9,21.4,24.8
		c5.6,9.9,8.9,20.5,10.1,31.2c1.2,10.7,0.3,21.4-2.5,31.6"/>
	<g>
		<path class="st2" d="M295,308.8c1.9-22-14.4-41.3-36.4-43.2c-22-1.9-41.3,14.4-43.2,36.4c-1.9,22,14.4,41.3,36.4,43.2
			C273.8,347.1,293.1,330.8,295,308.8z"/>
		<path class="st1" d="M300.8,347.3l-2.2,1.8l-11.4-13.6c-2.3,2.5-4.9,4.7-7.7,6.5l11.5,13.6l-2.2,1.8l19.3,22.9l12.1-10.2
			L300.8,347.3z"/>
	</g>
	<g>
		<g>
			
				<rect x="261.4" y="283.4" transform="matrix(-1 7.653446e-07 -7.653446e-07 -1 536.4337 603.6932)" class="st4" width="13.7" height="36.9"/>
		</g>
		<g>
			
				<rect x="247.7" y="289.6" transform="matrix(-1 7.653454e-07 -7.653454e-07 -1 509.0908 609.9263)" class="st4" width="13.7" height="30.6"/>
		</g>
		<g>
			<polyline class="st4" points="260.5,306.9 233.6,306.9 233.6,320.3 			"/>
		</g>
		<g>
			
				<rect x="261.4" y="296.5" transform="matrix(-1 7.653452e-07 -7.653452e-07 -1 536.4337 618.7513)" class="st1" width="13.7" height="25.7"/>
		</g>
		<g>
			
				<rect x="247.7" y="306.8" transform="matrix(-1 7.653452e-07 -7.653452e-07 -1 509.0908 628.9953)" class="st1" width="13.7" height="15.5"/>
		</g>
		<g>
			
				<rect x="233.6" y="314.3" transform="matrix(-1 7.653448e-07 -7.653448e-07 -1 481.195 636.5645)" class="st1" width="13.9" height="7.9"/>
		</g>
	</g>
	<path class="st3" d="M551.1,254.4c-4.4,20.7-12.8,40.5-24.9,58.2c-12.1,17.7-27.8,33.4-46.9,45.8c-19.1,12.4-39.9,20.3-61,24
		c-21.1,3.7-42.6,3.2-63.3-1.2"/>
	<path class="st3" d="M361,57c21.1-3.7,42.6-3.2,63.3,1.2c20.7,4.4,40.5,12.8,58.2,24.9s33.4,27.8,45.8,46.9"/>
	<path class="st3" d="M225.9,242.8c-3.1-21.2-1.9-42.7,3.1-63.2"/>
	<g>
		<path class="st2" d="M250,130.9c-4.7-6.1-7.5-13.7-7.5-21.9c0-19.8,16.1-35.9,35.9-35.9c19.8,0,35.9,16.1,35.9,35.9
			s-16.1,35.9-35.9,35.9c-6.5,0-12.6-1.7-17.9-4.8l-13.3,10.6L250,130.9z"/>
		<g>
			<path class="st1" d="M294.4,108.9c-0.2-0.3-0.2-0.6,0-0.9l0.8-1.2c1.5-2.3,0.8-5.4-1.5-6.9c-0.3-0.2-0.6-0.3-0.9-0.5l-1.4-0.5
				c-0.3-0.1-0.5-0.4-0.5-0.7l-0.1-1.5c-0.1-2.7-2.5-4.8-5.2-4.7c-0.3,0-0.7,0.1-1,0.2l-1.4,0.4c-0.3,0.1-0.7,0-0.9-0.3l-0.9-1.1
				c-1.7-2.1-4.9-2.5-7-0.7c-0.3,0.2-0.5,0.5-0.7,0.7l-1,1.1c-0.2,0.3-0.5,0.4-0.9,0.3l-1.4-0.3c-2.7-0.7-5.4,0.9-6.1,3.6
				c-0.1,0.3-0.1,0.6-0.1,1l-0.1,1.5c0,0.3-0.2,0.6-0.5,0.7l-1.4,0.5c-2.6,1-3.8,3.9-2.9,6.4c0.1,0.3,0.3,0.6,0.5,0.9l0.8,1.2
				c0.2,0.3,0.2,0.6,0,0.9l-0.8,1.2c-1.5,2.3-0.8,5.4,1.5,6.9c0.3,0.2,0.6,0.3,0.9,0.5l1.4,0.5c0.3,0.1,0.5,0.4,0.5,0.7l0.1,1.5
				c0.2,2.7,2.5,4.8,5.2,4.7c0.3,0,0.6-0.1,1-0.1l1.4-0.4c0.3-0.1,0.7,0,0.9,0.3l0.9,1.1c1.7,2.1,4.9,2.5,7,0.7
				c0.3-0.2,0.5-0.5,0.7-0.7l0.9-1.1c0.2-0.3,0.5-0.4,0.9-0.3l1.4,0.4c2.7,0.7,5.4-0.9,6.1-3.6c0.1-0.3,0.1-0.6,0.1-1l0.1-1.5
				c0-0.3,0.2-0.6,0.5-0.7l1.4-0.5c2.6-1,3.8-3.9,2.9-6.4c-0.1-0.3-0.3-0.6-0.5-0.9L294.4,108.9z"/>
			<path class="st2" d="M285.3,104.8c-0.7-0.9-2-1.1-2.9-0.5c-0.1,0.1-0.2,0.1-0.3,0.2l0,0l-6.3,5.5l-1.7-1.7
				c-0.8-0.8-2.1-0.8-2.9,0c-0.8,0.8-0.8,2.1,0,2.9l3.1,3.1c0.8,0.8,2,0.8,2.8,0.1l7.8-6.7C285.8,107.1,286,105.8,285.3,104.8z"/>
		</g>
	</g>
	<g>
		<circle class="st2" cx="530.4" cy="196.6" r="41.3"/>
		<path class="st1" d="M530.4,155.3v41.5l33.8-23.3C564.1,173.5,553.8,156,530.4,155.3z"/>
	</g>
	<g>
		<g>
			<g>
				<path class="st2" d="M406.4,273.7l0-17c0-8.4,3.2-16.5,9-22.6c6-6.3,9.6-14.8,9.6-24.1c0-20.7-17.9-37.2-39.1-34.8
					c-15.9,1.8-28.8,14.6-30.8,30.5c-1.3,10.5,2.1,20.2,8.3,27.4c6.2,7.2,10,16.2,10,25.7l0,15.1c0,3.2,2.6,5.7,5.7,5.7h21.4
					C403.8,279.4,406.4,276.8,406.4,273.7z"/>
				<g>
					<g>
						<g>
							<line class="st5" x1="374.2" y1="255.9" x2="405.7" y2="255.9"/>
							<line class="st5" x1="380.2" y1="264" x2="399.6" y2="264"/>
							<line class="st5" x1="380.2" y1="272.1" x2="399.6" y2="272.1"/>
						</g>
						<g>
							<line class="st5" x1="390.3" y1="167.4" x2="390.3" y2="152.4"/>
							<line class="st5" x1="416.5" y1="173.9" x2="424" y2="160.9"/>
							<line class="st5" x1="432" y1="192" x2="445" y2="184.5"/>
							<line class="st5" x1="364.1" y1="173.9" x2="356.6" y2="160.9"/>
							<line class="st5" x1="347.8" y1="192" x2="334.9" y2="184.5"/>
						</g>
					</g>
				</g>
			</g>
		</g>
		<path class="st4" d="M402.4,209H394c-1.4,0-2.4-1.3-2.1-2.7l3.3-13.6c0.6-2.3-2.6-3.7-3.9-1.7l-15.4,24c-0.9,1.4,0.1,3.3,1.8,3.3
			h8.4c1.4,0,2.4,1.3,2.1,2.7l-3.3,13.6c-0.6,2.3,2.6,3.7,3.9,1.7l15.4-24C405.1,210.9,404.1,209,402.4,209z"/>
	</g>
</g>
</svg>
